<svg xmlns="http://www.w3.org/2000/svg" viewBox="0 0 50 50">
  <path d="M25.03 10.53a9.8 9.8 0 00-9.39 7.1 6.38 6.38 0 00-5.75-3.68 6.38 6.38 0 00-6.36 6.36 6.38 6.38 0 006.36 6.35 6.38 6.38 0 005.75-3.69 9.8 9.8 0 009.4 7.1 9.8 9.8 0 009.36-7 6.38 6.38 0 005.71 3.6 6.38 6.38 0 006.36-6.36 6.38 6.38 0 00-6.36-6.36 6.38 6.38 0 00-5.7 3.6 9.8 9.8 0 00-9.38-7.02zm0 3.73a6.01 6.01 0 016.05 6.05 6.02 6.02 0 01-6.05 6.04A6.01 6.01 0 0119 20.3a6.01 6.01 0 016.04-6.05zM9.9 17.68a2.6 2.6 0 012.62 2.63 2.6 2.6 0 01-2.62 2.62 2.6 2.6 0 01-2.63-2.62 2.6 2.6 0 012.63-2.63zm30.22 0a2.6 2.6 0 012.63 2.63 2.6 2.6 0 01-2.63 2.62 2.6 2.6 0 01-2.62-2.62 2.6 2.6 0 012.62-2.63zM8.01 33.03c-.13 0-.18.07-.18.2v5.13c0 .13.05.2.17.2h.15c.12 0 .2-.07.2-.2V34.1l2.8 4.36.04.05v.01l.05.02.02.02H11.48c.12 0 .18-.06.18-.19v-5.14c0-.12-.06-.2-.18-.2h-.14c-.13 0-.2.08-.2.2v4.27l-2.8-4.35-.04-.04c-.03-.05-.08-.07-.15-.07H8zm33.7.07c-.12 0-.07.07-.07.2v1.75c0 .17.02.3.02.3h-.02s-.34-.78-1.28-.78c-1.02 0-1.75.81-1.72 2.02 0 1.2.66 2.04 1.7 2.04 1.02 0 1.35-.82 1.35-.82h.02s-.03.11-.03.25v.3c0 .13.07.18.2.18H42c.12 0 .17-.07.17-.2V33.3c0-.12-.2-.2-.32-.2h-.14zm-13.78.02c-.12 0-.05.07-.05.19v4.34c0 .86.57.96.89.96.14 0 .2-.07.2-.2v-.12c0-.12-.08-.17-.17-.17-.17-.02-.4-.08-.4-.57V33.3c0-.12-.2-.2-.32-.2h-.15zm-6.36.46c-.12 0-.2.07-.2.2v3.36c0 .92.52 1.44 1.37 1.44.16 0 .21-.06.21-.18v-.1c0-.15-.05-.18-.21-.2-.3-.02-.85-.13-.85-1.03v-1.95h.8c.12 0 .2-.05.2-.18v-.05c0-.13-.08-.2-.2-.2h-.8v-.92c0-.12-.05-.2-.18-.2h-.14zm-7.06.99c-1.07 0-1.92.76-1.94 2.04 0 1.2.9 2.04 2.04 2.04a2.2 2.2 0 001.3-.43c.09-.07.1-.16.05-.25l-.05-.08c-.06-.11-.14-.13-.25-.06-.18.14-.53.36-1.03.36-.8 0-1.49-.57-1.5-1.56h2.81a.2.2 0 00.2-.2c0-1.12-.59-1.86-1.63-1.86zm11.01 0c-1.15 0-2.04.85-2.05 2.06 0 1.2.88 2.04 2.04 2.04.7 0 1.18-.34 1.38-.5.09-.1.1-.16.05-.27l-.05-.07c-.07-.1-.14-.12-.25-.05-.18.16-.55.4-1.1.4a1.5 1.5 0 01-1.52-1.55c0-.94.67-1.58 1.52-1.58.46 0 .8.23.98.35.1.07.2.07.26-.03l.06-.1c.08-.1.07-.19-.02-.26a2 2 0 00-1.3-.44zm6 0c-1.14 0-2.06.87-2.06 2.02 0 1.17.92 2.06 2.06 2.06 1.13 0 2.05-.89 2.05-2.06 0-1.15-.92-2.02-2.05-2.02zm-11.47.06c-.05 0-.09.03-.13.08l-1.25 1.5-.82-.97-.44-.53a.2.2 0 00-.13-.08.2.2 0 00-.14.06l-.11.09c-.1.08-.1.17-.01.26l1.31 1.57-.87 1.04-.44.52c-.08.1-.07.2.02.28l.11.09c.1.08.18.06.26-.04l1.26-1.5.81.98.44.52c.08.1.18.1.28.03l.1-.1c.1-.07.1-.16.01-.26l-1.3-1.56.86-1.04.44-.53c.08-.1.08-.2-.02-.27l-.1-.1c-.06-.03-.1-.05-.14-.04zm14.57.03c-.12 0-.18.07-.18.2v2.28c0 1.01.75 1.5 1.67 1.5s1.67-.49 1.67-1.5v-2.29c.01-.12-.06-.2-.18-.2h-.14c-.13 0-.2.08-.2.2V37c0 .6-.39 1.15-1.15 1.15-.75 0-1.15-.55-1.15-1.15v-2.15c0-.12-.07-.2-.2-.2h-.14zM14.49 35c.57 0 1.06.41 1.1 1.23h-2.45c.13-.8.7-1.23 1.35-1.23zm17.03.04c.83 0 1.5.65 1.5 1.54 0 .92-.67 1.6-1.5 1.6-.84 0-1.51-.7-1.53-1.6 0-.87.7-1.54 1.53-1.54zm8.88 0c.83 0 1.24.76 1.24 1.56 0 1.12-.6 1.58-1.26 1.58-.73 0-1.22-.62-1.24-1.58 0-1 .57-1.56 1.26-1.56z"/>
</svg>
