<svg xmlns="http://www.w3.org/2000/svg" fill="none" viewBox="0 0 50 50">
  <path fill="#0082C9" d="M25.02 13.63c-5.18 0-9.57 3.51-10.93 8.25a7.4 7.4 0 00-6.72-4.3 7.43 7.43 0 00.05 14.84 7.44 7.44 0 006.71-4.3 11.32 11.32 0 0010.9 8.25c5.13 0 9.52-3.47 10.92-8.17a7.4 7.4 0 100-6.45 11.45 11.45 0 00-10.93-8.12zm0 4.35c3.9 0 7.02 3.11 7.02 7.02 0 3.9-3.11 7.02-7.02 7.02A6.99 6.99 0 0118 25c0-3.9 3.11-7.02 7.02-7.02zm-17.6 3.95A3.05 3.05 0 0110.49 25a3.05 3.05 0 01-3.07 3.07A3.05 3.05 0 014.35 25a3.05 3.05 0 013.07-3.07zm35.16 0A3.05 3.05 0 0145.65 25a3.05 3.05 0 01-3.07 3.07A3.05 3.05 0 0139.51 25a3.08 3.08 0 013.07-3.07z"/>
</svg>
