<svg width="51" height="50" viewBox="0 0 51 50" fill="none" xmlns="http://www.w3.org/2000/svg">
<path d="M39 0H11C4.92487 0 0 4.92487 0 11V39C0 45.0751 4.92487 50 11 50H39C45.0751 50 50 45.0751 50 39V11C50 4.92487 45.0751 0 39 0Z" fill="url(#paint0_linear_5305_525)"/>
<path fill-rule="evenodd" clip-rule="evenodd" d="M24.5006 5.5979C24.6418 5.51464 24.8028 5.47066 24.967 5.47066C25.131 5.47066 25.2921 5.51461 25.4333 5.5979C25.442 5.60304 25.4507 5.60831 25.4592 5.61372L25.4669 5.60224L29.6592 8.42679L29.6451 8.44775C29.7336 8.50589 29.8113 8.57889 29.8746 8.66336L29.9317 8.73943L34.9089 19.555L45.0761 34.7044C45.1671 34.8385 45.2212 34.9945 45.2324 35.1566C45.2401 35.2674 45.2276 35.3784 45.1959 35.4842L44.3812 40.411C44.3691 40.5732 44.3139 40.7291 44.2215 40.8626C44.1282 40.9974 44.0003 41.1046 43.8511 41.1728C43.7139 41.2355 43.5633 41.2633 43.4128 41.2535L8.77711 39.2675C8.62291 39.2607 8.4725 39.2148 8.34024 39.1336C8.26227 39.0857 8.19241 39.0267 8.13266 38.9588L5.1384 36.1283C5.03705 36.0535 4.95186 35.9585 4.88842 35.8489C4.81072 35.7147 4.7682 35.563 4.76478 35.408C4.76136 35.253 4.79715 35.0996 4.86885 34.9621L4.89079 34.9201L24.1955 5.89087C24.2729 5.771 24.3773 5.67061 24.5006 5.5979ZM7.91775 36.2983L8.65502 36.9953L9.1448 36.2929L7.91775 36.2983ZM11.3285 36.2833L10.4288 37.5736L42.0701 39.3879L40.5823 36.1549L11.3285 36.2833ZM39.7622 34.3727L12.5777 34.4921L27.9699 12.4202L33.3465 20.4314L39.7622 34.3727ZM42.5441 36.1463L43.0828 37.317L43.2769 36.143L42.5441 36.1463ZM42.6943 34.3599L41.7239 34.3641L39.6007 29.7504L42.6943 34.3599ZM24.9703 7.9506L7.3045 34.5153L10.3939 34.5017L26.9023 10.8293L24.9703 7.9506Z" fill="#1D1D1B"/>
<defs>
<linearGradient id="paint0_linear_5305_525" x1="0" y1="45.8348" x2="45.8348" y2="0" gradientUnits="userSpaceOnUse">
<stop stop-color="#B8EDFF"/>
<stop offset="1" stop-color="#D4B8FF"/>
</linearGradient>
</defs>
</svg>
