<?xml version="1.0" encoding="UTF-8"?>
<svg width="50" height="50" version="1.1" viewBox="0 0 13.229 13.23" xmlns="http://www.w3.org/2000/svg">
 <g transform="matrix(.27016 0 0 .27016 48.661 -19.832)" stroke-width=".265">
  <path d="m-131.19 97.166s1.1327-23.76-24.98-23.76c-23.093 0-23.815 22.792-23.815 22.792s-3.3969 26.177 24.347 26.177c26.609 0 24.448-25.209 24.448-25.209zm-32.286-8.3023c4.8996-2.9975 11.159-1.1655 13.505 3.3423 0.44451 0.85431 0.501 2.1695 0.21949 3.0658-0.97194 3.0942-3.2668 4.8294-6.4168 5.5666 0.92862-0.79504 1.6678-1.6966 1.903-2.9422a4.3095 4.3096 0 0 0-0.74145-3.4206 4.3679 4.368 0 0 0-5.0292-1.5326c-1.9393 0.73634-3.0016 2.5062-2.8101 4.6819 0.17788 2.0209 1.7113 3.3307 4.5803 3.8282-0.42879 0.22696-0.75905 0.3941-1.0822 0.57411a10.433 10.433 0 0 0-3.3533 2.9166c-0.29119 0.39312-0.49139 0.42479-0.93481 0.15362-5.7681-3.5274-6.1388-12.38 0.16034-16.234zm-4.3172 21.796c-0.92662 0.23521-1.8245 0.58341-2.7718 0.89408 0.46332-3.126 4.1239-6.0049 7.2195-5.6764a7.9787 7.9788 0 0 0-1.5085 4.2265c-1.0286 0.18945-1.998 0.31689-2.9392 0.5558zm19.716-30.52c0.91569 0.03365 1.833 0.01973 2.7494 0.04143a4.7421 4.7421 0 0 1 0.68022 0.09479 6.6281 6.6282 0 0 1-0.69138 0.88685c-0.32758 0.30526-0.69771 0.60372-1.1697 0.13972-0.11352-0.1116-0.38172-0.08599-0.57925-0.08859-0.91117-0.01197-1.8236-0.04109-2.7334-0.0067a16.982 16.982 0 0 0-2.3545 0.24044c-0.14587 0.0262-0.36398 0.51115-0.29692 0.68996 0.15821 0.422 0.38902 0.88736 0.7309 1.1573 1.2634 0.99732 2.6071 1.8928 3.8763 2.8833 1.2333 0.96249 2.3813 2.0172 3.0809 3.4691 0.9115 1.8918 0.93805 3.8755 0.54498 5.8681-0.65622 3.3263-2.3395 6.0821-5.0652 8.0837-1.0983 0.80651-2.4582 1.2642-3.7162 1.8437-1.1064 0.50968-2.2452 0.9486-3.3541 1.4529-1.9994 0.90909-3.123 3.0793-2.7925 5.3356 0.30336 2.0706 2.1198 3.7985 4.2006 4.1552 2.4961 0.42792 5.0716-1.1942 5.6822-3.7314 0.68665-2.8529-0.86343-5.4001-3.7648-6.1722-0.12775-0.034-0.256-0.0662-0.52253-0.13497 0.77613-0.34678 1.4464-0.59384 2.0653-0.93439q1.6194-0.89113 3.1798-1.8872c0.30592-0.19571 0.47119-0.19581 0.7321 0.0297 1.9954 1.7253 3.1858 3.8715 3.5197 6.5028 0.55244 4.3556-1.5094 8.357-5.3982 10.408-6.0165 3.173-13.379-0.4385-14.708-7.1089-1.1383-5.7135 2.894-10.896 7.747-11.897 2.0872-0.43034 3.9958-1.2992 5.4795-2.9066 0.95736-1.0372 1.4214-1.9271 1.5796-2.3286a6.458 6.4581 0 0 0 0.44416-2.3618 5.528 5.5281 0 0 0-0.48404-2.0237c-0.50665-1.1548-2.4476-2.992-2.9281-3.3795l-4.5703-3.5781c-0.1612-0.13263-0.34268-0.12302-0.73581-0.09638-0.46701 0.03165-1.6608 0.09775-2.176-0.03724 0.41673-0.31537 1.5528-0.77454 2.0407-1.1437-1.481-1.0005-3.1715-0.63917-4.724-0.93793 0.35897-0.66857 2.1352-1.6959 3.1454-1.8104a14.941 14.941 0 0 0-0.27546-1.6782c-0.0617-0.22716-0.31523-0.44738-0.53643-0.5771-0.53637-0.31449-1.105-0.57403-1.7219-0.88677a3.5805 3.5806 0 0 1 1.8497-0.5722 6.9071 6.9072 0 0 1 1.8523 0.18046c1.1005 0.25145 1.979 0.08731 2.8545-0.66075-0.68915-0.27752-1.3782-0.53106-2.0465-0.83095a20.083 20.084 0 0 1-1.9226-1.0052c1.7338 0.24084 3.4108 0.89098 5.1836 0.65347q0.0226-0.12087 0.0453-0.24172c-1.3253-0.30849-2.6506-0.61697-4.118-0.95854 2.4549-0.22475 4.7404-0.26182 6.9046 0.79232 0.609 0.29664 1.2462 0.54216 1.8299 0.88098 0.28472 0.16525 0.4764 0.49096 0.70997 0.74422 0.18552 0.20118 0.33454 0.4707 0.56249 0.59194 0.8651 0.46004 1.8174 0.47811 2.7876 0.45506 7e-3 -0.1105 0.0141-0.21406 0.0213-0.32536 0.97644 0.30513 2.0754 1.4312 2.0736 2.2535-1.5818 0-3.1624-6e-3 -4.7427 0.0088-0.16891 0.0016-0.33667 0.12497-0.50496 0.19186 0.15994 0.09315 0.31712 0.26106 0.48027 0.26707z" stroke-width=".16348"/>
 </g>
</svg>
