<svg xmlns="http://www.w3.org/2000/svg" viewBox="0 0 50 50">
  <path d="M17.8 28.92v-.06V28.85c-.07-1.1-.52-1.7-1.25-1.95a3.56 3.56 0 01-.67-.15h-.04.02-.02c-1.5-.15-3.58-.07-5.1-.1H8.89v8.18h2.59v-2.92h3.78v2.92h2.6c-.02-.47.03-5.6-.05-5.91zm-2.55.3v1.53h-3.78v-2.93c.35.02 2.61-.1 3.2.08.52.08.6.8.58 1.32zM3.17 33.58c-.5-.07-.6-.8-.58-1.32v-5.6H0v.01c.02.56-.03 5.6.05 5.9.07 1.47.8 2.06 1.96 2.17 1.5.15 3.58.07 5.09.09h.29v-1.16H6.38c-.36-.02-2.61.1-3.2-.09zm26.91-4.66c-.06-1.47-.8-2.07-1.96-2.17-.63-.06-1.38-.09-2.14-.1v.02-.02h-6.64v1.14l.02.01h-.02v7.03h2.5V27.8c.41.01.78.04.97.1.43.06.56.57.58 1.04v5.89h2.59c-.01-.38.02-3.78 0-5.25v-1.76c.4.02.85.05.98.08.51.08.6.8.58 1.32v5.61h2.59c-.01-.47.04-5.6-.05-5.91zm10.7 0c-.07-1.47-.8-2.07-1.96-2.17a19.83 19.83 0 00-1.86-.09h-5.1v8.17h2.6v-2.91c.93 0 2 .01 2.99-.01.5-.02.95-.04 1.37-.08a2.93 2.93 0 001.03-.3c.55-.31.89-.9.93-1.87.04-.25.04-.5 0-.74zm-2.54.3v.4c-.01.22-.05.46-.13.65l-.01.03c-.09.2-.23.34-.44.37-.18.05-.36.07-.55.08h-2.66v-2.92h2.69c.18 0 .35.03.52.07.43.07.56.59.58 1.06v.26z"/>
  <path d="M40.78 28.92c-.07-1.47-.8-2.07-1.96-2.17a19.83 19.83 0 00-1.86-.09h-5.1v8.17h2.6v-2.91c.93 0 2 .01 2.99-.01.5-.02.95-.04 1.37-.08.23-.02.45-.06.67-.13l.36-.16c.55-.32.89-.91.93-1.88.04-.25.04-.5 0-.74zm-2.54.3v.4c-.01.22-.05.46-.13.65v.03c-.1.2-.24.34-.45.37-.18.05-.36.07-.55.08h-2.66v-2.92h2.69c.18 0 .35.03.52.07.43.07.56.59.58 1.06v.26z"/>
  <path d="M44.13 17.87c1.26 2.9-2.74 3.91-4.22 4.56a5.14 5.14 0 00-2.71 3.05 27.54 27.54 0 011.73.1c1.84.16 2.91 1.3 3.03 3.2l.03.47v.08l-.03.46a3.68 3.68 0 01-.73 2.09 6.25 6.25 0 006.71-6.28c.07-3.73-3.8-7.73-3.8-7.73z"/>
  <path d="M49.79 27.8a7.67 7.67 0 01-2.77 4.57 9.13 9.13 0 01-6.13 1.74l-.5-.02.5-.93h.4c2.1 0 3.84-.51 5.15-1.53a6.74 6.74 0 002.43-4.02c.46-2.22.07-4.8-1.1-7.1A11.29 11.29 0 0043 15.6c.06.3.13.73.19 1.18a9.94 9.94 0 01.09 1.66 1.7 1.7 0 01-1 1.37c-.44.25-.9.48-1.34.71l-.23.12c-2.2 1.13-4.27 2.2-5.04 4.84h-.98c.86-3.24 3.36-4.53 5.78-5.78l.17-.08.19-.1 1.04-.55.04-.03a.89.89 0 00.43-.76c0-.36-.03-.83-.1-1.4l-.02-.07c-.13-.95-.32-1.82-.32-1.83l-.2-.88.83.34a12.01 12.01 0 016.08 5.75 11.97 11.97 0 011.18 7.71z"/>
</svg>
