<svg fill="none" xmlns="http://www.w3.org/2000/svg" viewBox="0 0 50 50">
  <path d="M26.7098 8.4096h-4.6874v4.6874h4.6874V8.4096zM26.7098 14.3024h-4.6874v4.6874h4.6874v-4.6874zM26.7098 20.1955h-4.6874v4.6874h4.6874v-4.6874zM21.018 14.3024h-4.6875v4.6874h4.6875v-4.6874zM21.018 20.1955h-4.6875v4.6874h4.6875v-4.6874zM15.3258 14.3024h-4.6874v4.6874h4.6874v-4.6874zM15.3258 20.1955h-4.6874v4.6874h4.6874v-4.6874zM9.701 20.1955H5.0136v4.6874H9.701v-4.6874zM32.4019 20.1955h-4.6873v4.6874h4.6873v-4.6874z" fill="#009DDB"/>
  <path d="M17.6903 41.5905c-17.2638 0-15.255-15.1995-15.255-15.1995H31.259c4.8606 0 6.4678-1.5403 6.4678-1.5403s-2.7452-3.5505.4689-7.8331c3.616 2.0757 3.4821 5.1563 3.4821 5.1563s3.683-1.2057 5.9597.8704c-1.2738 4.1486-6.8982 3.8811-6.8982 3.8811s-5.2237 14.6651-23.0491 14.6651z" fill="#009DDB"/>
</svg>
