<?xml version="1.0" encoding="UTF-8"?>
<svg width="51" height="50" viewBox="0 0 51 50" fill="none" xmlns="http://www.w3.org/2000/svg">
<path d="M43.0979 11.6694L38.9915 15.75C38.2691 16.3975 37.9198 17.44 38.3247 18.3211C41.0604 24.0442 40.0219 30.8669 35.5334 35.3519C31.043 39.8351 24.2124 40.8724 18.4824 38.138C17.6384 37.7601 16.6479 38.0803 15.9977 38.7393L11.8248 42.9054C11.3343 43.3858 11.0929 44.0637 11.1708 44.7435C11.2487 45.4253 11.6385 46.0311 12.224 46.3861C22.0565 52.3371 34.6836 50.8199 42.8223 42.7099C50.9609 34.6018 52.5122 21.9934 46.5826 12.1575C46.2423 11.5593 45.6416 11.1529 44.9591 11.058C44.2766 10.9611 43.5884 11.1889 43.0979 11.6694ZM7.58532 7.23555C-0.593228 15.3133 -2.19585 27.9236 3.70137 37.7844C4.04167 38.3844 4.6405 38.7907 5.323 38.8857C6.0055 38.9818 6.6937 38.7549 7.18608 38.2722L11.2697 34.2163C12.0092 33.5688 12.37 32.5149 11.9593 31.6224C9.22362 25.8993 10.2602 19.0768 14.7506 14.5918C19.2391 10.1086 26.0716 9.07089 31.7997 11.8033C32.6342 12.1774 33.6114 11.8668 34.2635 11.227L38.4592 7.03625C38.9497 6.55773 39.1911 5.87984 39.1132 5.19815C39.0334 4.51836 38.6455 3.9126 38.06 3.5556C28.2104 -2.34413 15.6023 -0.781355 7.49597 7.34765L7.58532 7.23555Z" fill="url(#paint0_linear_5306_565)"/>
<defs>
<linearGradient id="paint0_linear_5306_565" x1="7.55237" y1="42.567" x2="42.4365" y2="7.72111" gradientUnits="userSpaceOnUse">
<stop stop-color="#0071FF"/>
<stop offset="1" stop-color="#00BFE1"/>
</linearGradient>
</defs>
</svg>
