<svg viewBox="0 0 50 50" xmlns="http://www.w3.org/2000/svg">
<path d="M15.4813 22.1356H8.46759C8.38901 22.1356 8.29078 22.1749 8.25148 22.2338L7.83891 22.7643C7.79962 22.8232 7.81926 22.8625 7.89785 22.8625L15.0098 22.8821C15.0688 22.8821 15.167 22.8232 15.2063 22.7643L15.5403 22.2535C15.5796 22.1945 15.5599 22.1356 15.4813 22.1356Z"/>
<path d="M14.4597 23.943H5.50099C5.42241 23.943 5.32417 23.9823 5.28488 24.0413L4.87231 24.5717C4.83301 24.6307 4.85266 24.67 4.93125 24.67L14.224 24.6503C14.3026 24.6503 14.3811 24.611 14.4008 24.5324L14.558 24.0609C14.5776 24.002 14.5383 23.943 14.4597 23.943Z" />
<path d="M14.0275 25.7505H10.0982C10.0197 25.7505 9.94107 25.8094 9.90178 25.8684L9.62673 26.3595C9.58744 26.4185 9.60708 26.4774 9.68567 26.4774L13.9686 26.4971C14.0275 26.4971 14.1061 26.4381 14.1061 26.3595L14.1454 25.888C14.1454 25.8094 14.1061 25.7505 14.0275 25.7505Z"/>
<path d="M45.1277 24.0216C44.8723 22.1356 43.9096 20.7014 42.3576 19.6405C40.6483 18.4814 38.7623 18.2849 36.7584 18.6385C34.4204 19.0511 32.6916 20.0334 31.2574 21.9195C30.6483 22.725 30.1768 23.5698 29.9018 24.4735C27.5049 24.4735 24.4794 24.4735 23.5756 24.4735C23.281 24.4735 23.1434 24.67 23.0845 24.7878C22.8094 25.2986 22.3379 26.3203 22.0825 26.9293C21.945 27.2633 22.0432 27.5187 22.4558 27.5187C24.6562 27.5187 25.5403 27.5187 26.2476 27.5187C26.0511 27.7937 25.8939 28.0295 25.7171 28.2456C24.833 29.2476 23.7132 29.7191 22.3772 29.5423C20.8252 29.3261 19.7446 28.0295 19.725 26.4578C19.7053 24.8664 20.3929 23.5894 21.7289 22.725C22.8487 21.9981 24.0472 21.8212 25.2849 22.4303C25.6975 22.6267 25.9136 22.8428 26.2083 23.1768C26.4637 23.4715 26.4833 23.4519 26.778 23.3733C27.9961 23.059 28.8409 22.8232 30.0786 22.5089C30.3144 22.4499 30.3929 22.3517 30.2751 22.1749C29.7839 21.0354 29.0373 20.0924 27.9961 19.4047C26.4047 18.3242 24.6366 18.1081 22.7898 18.4421C20.5305 18.8546 18.6837 20.0138 17.2888 21.8409C15.9922 23.5305 15.3635 25.4558 15.6189 27.5973C15.835 29.4047 16.6601 30.8586 18.114 31.9588C19.6857 33.1375 21.4735 33.5108 23.3988 33.2554C25.7367 32.9411 27.5835 31.7819 28.998 29.9155C29.3124 29.4833 29.5874 29.0511 29.8232 28.5796C30.1572 29.778 30.8252 30.7996 31.7878 31.6444C33.1631 32.8232 34.7937 33.334 36.5815 33.3733C37.0923 33.3144 37.6228 33.2947 38.1533 33.1965C39.9804 32.8232 41.5717 31.9981 42.8684 30.6817C44.6955 28.835 45.4617 26.6739 45.1277 24.0216ZM38.7623 29.1886C37.721 29.7191 36.6405 29.778 35.5599 29.3065C34.1454 28.6778 33.3988 27.1258 33.7525 25.5933C34.1847 23.7466 35.3635 22.5874 37.1906 22.1749C39.057 21.7426 40.8448 22.8428 41.1984 24.7878C41.2377 24.9843 41.2377 25.1808 41.2574 25.4362C41.1591 27.1258 40.3144 28.3831 38.7623 29.1886Z"/>
</svg>
