<svg viewBox="0 0 50 50" xmlns="http://www.w3.org/2000/svg">
  <path d="m13.705 44.04 33.028 4.509a158225 158225 0 0 1-11.168-18.596L13.705 44.04ZM49.857 9.229c-.976 1.465-1.953 2.929-2.928 4.395A27839.22 27839.22 0 0 0 36.894 28.73c-.187.28-.428.503-.166.935 3.23 5.335 6.436 10.685 9.649 16.03.507.844 1.02 1.685 1.675 2.495L50 9.27l-.143-.041ZM5.758 25.86c.151.143.529.227.704.14 3.099-1.523 6.217-3.012 9.248-4.66.989-.537 1.749-1.5 2.6-2.282 2.82-2.585 5.635-5.177 8.45-7.768.171-.16.375-.313.478-.514 1.01-1.976 2.004-3.961 3.032-6.004-1.226-.46-2.388-.912-3.566-1.322-.16-.056-.41.055-.584.151-2.724 1.522-5.5 2.963-8.138 4.623-1.32.83-2.395 2.055-3.563 3.12a483.426 483.426 0 0 0-5.621 5.192 9.68 9.68 0 0 0-1.325 1.553c-1.27 1.848-2.501 3.724-3.79 5.652.72.744 1.375 1.456 2.075 2.12Zm11.325-2.527-4.657 19.675 21.882-14.1-17.225-5.575ZM47.965 9.291c-6.273 1.049-12.396 2.071-18.598 3.107l6.311 15.353L47.965 9.29ZM17.341 22.002l16.882 5.48-6.244-15.207-10.638 9.727ZM5.992 29.66.083 43.782l11.253-.332-5.344-13.792Zm5.478 10.516.139-.03c1.351-5.619 2.722-11.198 4.101-17.036l-9.028 4.693c1.539 4 3.18 8.22 4.787 12.373ZM45.694 8.38c-1.797-.476-3.594-.953-5.392-1.426-2.584-.68-5.17-1.35-7.752-2.036-.323-.086-.556-.142-.746.247-.912 1.87-1.853 3.726-2.78 5.589-.03.058-.023.132-.046.277L45.69 8.498l.004-.118ZM35.27 4.127 49.915 8.18l-2.42-6.895L35.291 3.99l-.022.137ZM12.711 45.12c-1.814-.21-3.676-.017-5.516.015-1.51.025-3.022.083-4.533.13a.6.6 0 0 0-.466.204l37.48 3.465.026-.166-12.015-1.64c-4.99-.682-9.973-1.431-14.976-2.008ZM.33 39.472c1.61-3.736 3.213-7.474 4.83-11.207.161-.374.149-.629-.168-.93-.676-.644-1.304-1.337-2.043-2.106L0 39.782l.11.051c.074-.12.165-.233.22-.361Zm31.731-36.33c2.715-.701 5.47-1.249 8.208-1.86.177-.04.35-.098.525-.148L40.767 1 29.002 2.583c1.105.482 1.956.843 3.06.558Z"/>
</svg>
