<svg xmlns="http://www.w3.org/2000/svg" viewBox="0 0 50 46.24"><path d="M49.85,25.9l-2.66-8.2h0L41.9,1.43a2.07,2.07,0,0,0-2-1.43,2,2,0,0,0-2,1.44l-5,15.44H17.09l-5-15.44a2,2,0,0,0-2-1.44h0a2.09,2.09,0,0,0-2,1.44L2.82,17.7h0L.15,25.9a3,3,0,0,0,1.08,3.35L24.31,46h0l0,0,0,0h0a.41.41,0,0,0,.11.07h0l.06,0,.06,0h.05l.09,0h.08l.17,0h0l.17,0h.08l.09,0h.05l.06,0,.06,0h0l.11-.07h0L48.77,29.25A3,3,0,0,0,49.85,25.9ZM39.92,3l4.53,13.93H35.4Zm3.73,16.29L28.19,39.06l6.44-19.82ZM21.81,39.06,6.35,19.24h9ZM10.08,3l4.53,13.93h-9ZM2.62,27.34a.63.63,0,0,1-.23-.71l2-6.1L18.93,39.19ZM24.27,46h0l0,0,0,0h0l.11.09h0ZM25,41.25l-7.14-22H32.15Zm.77,4.69,0,0h0l0,0h0l.1-.09h0Zm21.61-18.6L31.07,39.19,45.63,20.53l2,6.1A.63.63,0,0,1,47.38,27.34Z" transform="translate(0 0)"/></svg>
