<svg viewBox="0 0 50 50" fill="none" xmlns="http://www.w3.org/2000/svg">
<path fill-rule="evenodd" clip-rule="evenodd" d="M28.2457 21.6898C27.7853 21.8121 27.3184 21.9361 26.778 22.0755L26.7455 22.0842C26.4815 22.1551 26.4539 22.1625 26.2083 21.879C25.9136 21.5451 25.6975 21.3289 25.2849 21.1325C24.0472 20.5234 22.8487 20.7003 21.7289 21.4272C20.3929 22.2916 19.7053 23.5686 19.725 25.16C19.7446 26.7317 20.8252 28.0284 22.3772 28.2445C23.7132 28.4213 24.833 27.9498 25.7171 26.9478C25.8482 26.7875 25.9686 26.6164 26.1021 26.4265C26.1487 26.3604 26.1968 26.2919 26.2476 26.2209H22.4558C22.0432 26.2209 21.945 25.9655 22.0825 25.6315C22.3379 25.0225 22.8094 24.0009 23.0845 23.49C23.1434 23.3722 23.281 23.1757 23.5757 23.1757H29.8981C30.1821 22.2761 30.6428 21.426 31.2574 20.6217C32.6916 18.7356 34.4204 17.7533 36.7584 17.3407C38.7623 16.9871 40.6483 17.1836 42.3576 18.3427C43.9096 19.4036 44.8723 20.8378 45.1277 22.7238C45.4617 25.3761 44.6955 27.5372 42.8684 29.384C41.5717 30.7003 39.9804 31.5254 38.1533 31.8987C37.8047 31.9632 37.4562 31.9938 37.1132 32.024C36.9342 32.0397 36.7567 32.0553 36.5815 32.0755C34.7937 32.0362 33.1631 31.5254 31.7878 30.3466C30.8206 29.5105 30.1543 28.4829 29.8232 27.2867C29.5935 27.7506 29.3187 28.195 28.998 28.6177C27.5835 30.4842 25.7368 31.6433 23.3988 31.9576C21.4735 32.213 19.6857 31.8398 18.114 30.661C16.6601 29.5608 15.835 28.1069 15.6189 26.2995C15.3635 24.158 15.9922 22.2327 17.2888 20.5431C18.6837 18.716 20.5305 17.5568 22.7898 17.1443C24.6366 16.8103 26.4047 17.0264 27.9961 18.1069C29.0373 18.7946 29.7839 19.7376 30.2751 20.8771C30.3929 21.0539 30.3144 21.1521 30.0786 21.2111C29.3901 21.3859 28.8229 21.5365 28.2457 21.6898ZM41.2437 23.9282C41.2476 23.9942 41.2516 24.0638 41.2574 24.1384C41.1591 25.828 40.3144 27.0853 38.7623 27.8908C37.721 28.4213 36.6405 28.4802 35.5599 28.0087C34.1454 27.38 33.3988 25.828 33.7525 24.2955C34.1847 22.4488 35.3635 21.2897 37.1906 20.8771C39.057 20.4449 40.8448 21.5451 41.1984 23.49C41.2263 23.6291 41.2344 23.7682 41.2437 23.9282Z" fill="#00ACD7"/>
<path d="M7.8978 21.5647C7.81921 21.5647 7.79957 21.5254 7.83886 21.4665L8.25143 20.936C8.29073 20.8771 8.38896 20.8378 8.46754 20.8378H15.4813C15.5599 20.8378 15.5795 20.8967 15.5402 20.9556L15.2062 21.4665C15.167 21.5254 15.0687 21.5843 15.0098 21.5843L7.8978 21.5647Z" fill="#00ACD7"/>
<path d="M4.93125 23.3722C4.85266 23.3722 4.83301 23.3329 4.87231 23.2739L5.28488 22.7435C5.32417 22.6846 5.42241 22.6453 5.50099 22.6453H14.4597C14.5383 22.6453 14.5776 22.7042 14.558 22.7631L14.4008 23.2347C14.3811 23.3132 14.3026 23.3525 14.224 23.3525L4.93125 23.3722Z" fill="#00ACD7"/>
<path d="M9.6267 25.0617C9.58741 25.1207 9.60706 25.1796 9.68564 25.1796L13.9685 25.1993C14.0275 25.1993 14.1061 25.1403 14.1061 25.0617L14.1454 24.5902C14.1454 24.5116 14.1061 24.4527 14.0275 24.4527H10.0982C10.0196 24.4527 9.94104 24.5116 9.90175 24.5706L9.6267 25.0617Z" fill="#00ACD7"/>
</svg>
