<svg xmlns="http://www.w3.org/2000/svg" viewBox="0 0 43.94 43.94" fill-rule="evenodd;"><path d="M47,24.94A22,22,0,0,0,3,25,21.84,21.84,0,0,0,24.94,47,21.85,21.85,0,0,0,47,24.94ZM14.74,10.39c0-.06,0-.13,0-.2h.31a4.52,4.52,0,0,1,3.5,2,8.4,8.4,0,0,1,1.66,5.47V30.53c0,1.72.2,1.91,1.92,1.91h7.64c1.68,0,1.88-.21,1.89-1.92v-5.6c0-.21,0-.39,0-.55s0-.27,0-.39c-.09-.88-.46-.94-1.82-1h-.44a20.31,20.31,0,0,1-3-.21,6.34,6.34,0,0,1-5.25-3.84,2.65,2.65,0,0,1-.25-.92c0-.48.37-.64,1.22-.66,3,0,6-.05,9,0a6.28,6.28,0,0,1,5.34,3.23,5.68,5.68,0,0,1,.74,2.55c.14,3,.14,5.94,0,8.89A6.24,6.24,0,0,1,31,38c-3.33.11-6.66.14-10,0a6.44,6.44,0,0,1-4.45-1.84,6.73,6.73,0,0,1-1.88-4.88V11.81c0-.19,0-.38,0-.59S14.72,10.7,14.74,10.39Z" transform="translate(-3.03 -3.03)"/></svg>
