<svg xmlns="http://www.w3.org/2000/svg" fill="none" viewBox="0 0 50 50">
  <defs/>
  <path fill="url(#paint0_linear)" d="M34.5898 4.2043a22.611 22.611 0 00-9.5248-2.1244 21.9654 21.9654 0 00-14.3413 5.0147C3.216 13.2885-1.1393 24.3075 4.8481 35.7705l.0252-.0074a22.8242 22.8242 0 0028.861 10.3234 22.8238 22.8238 0 008.5978-35.9366l.0002-.0051a22.612 22.612 0 00-7.7425-5.9405z"/>
  <path fill="#5D6AA5" fill-rule="evenodd" d="M25 2.1762A22.8236 22.8236 0 003.9135 16.2657 22.8238 22.8238 0 1025 2.1762zm-13.8892 2.037A24.9998 24.9998 0 0150 25 25 25 0 1111.1108 4.2133z" clip-rule="evenodd"/>
  <path fill="#757575" d="M37.1704 32.6954a7.6107 7.6107 0 01-4.7051 7.0494 7.6099 7.6099 0 01-2.9207.5764h-9.0903a7.6107 7.6107 0 01-7.0494-4.7052 7.609 7.609 0 01-.5764-2.9206V9.8779a5.0174 5.0174 0 014.1481 2.3754 9.4952 9.4952 0 011.7181 5.7193v14.7228a1.5548 1.5548 0 001.0483 1.6958c.2292.0763.473.0981.7121.0638h9.091a1.5552 1.5552 0 001.7596-1.7596v-6.9801a1.5872 1.5872 0 00-.4543-1.3055 1.5882 1.5882 0 00-1.3053-.4549h-1.7604a10.3466 10.3466 0 01-5.7478-1.7758 4.883 4.883 0 01-2.3462-4.0896h9.8544a7.6094 7.6094 0 015.3968 2.229 7.6106 7.6106 0 012.229 5.3968v6.9801h-.0015z"/>
  <path fill="#fff" d="M37.1704 32.9936a7.6095 7.6095 0 01-2.229 5.3968 7.6098 7.6098 0 01-5.3968 2.229h-9.0903a7.6089 7.6089 0 01-5.3968-2.229 7.6103 7.6103 0 01-2.229-5.3968V10.1769a5.0176 5.0176 0 014.1481 2.3754 9.4952 9.4952 0 011.7181 5.7193v14.722a1.5552 1.5552 0 001.7596 1.7604h9.0918a1.5554 1.5554 0 001.6958-1.0483 1.5539 1.5539 0 00.0638-.7121v-6.9801a1.587 1.587 0 00-.4549-1.3052 1.5884 1.5884 0 00-1.3055-.4544h-1.7588a10.3452 10.3452 0 01-5.7486-1.7765 4.8831 4.8831 0 01-2.3462-4.0889h9.8544a7.6113 7.6113 0 015.3968 2.229 7.6098 7.6098 0 012.229 5.3968v6.9801l-.0015-.0008z"/>
  <defs>
    <linearGradient id="paint0_linear" x1="11.8402" x2="25.6073" y1="6.1821" y2="25.8434" gradientUnits="userSpaceOnUse">
      <stop stop-color="#BFC8E6"/>
      <stop offset=".077" stop-color="#B6BEDD"/>
      <stop offset=".204" stop-color="#9FA4C9"/>
      <stop offset=".364" stop-color="#7F82AE"/>
      <stop offset=".552" stop-color="#585C92"/>
      <stop offset=".758" stop-color="#283375"/>
    </linearGradient>
  </defs>
</svg>
