<svg viewBox="0 0 50 50" fill="none" xmlns="http://www.w3.org/2000/svg">
<path fill-rule="evenodd" clip-rule="evenodd" d="M20.2061 14.6809C20.2061 6.57264 26.7794 0 34.8872 0C42.9948 0 49.5681 6.57264 49.5681 14.6809C49.5681 22.7888 42.995 29.362 34.8872 29.362C31.5489 29.362 28.4708 28.2476 26.0045 26.3707C25.8054 26.1479 25.5948 25.9295 25.3757 25.7154C25.8693 23.738 24.7756 22.0235 24.7756 22.0235C23.7775 21.9617 22.9715 22.1315 22.3678 22.3527C20.9967 20.1201 20.2061 17.4928 20.2061 14.6809ZM30.7101 24.0355C30.7101 25.9359 32.5804 27.4769 34.8872 27.4769C37.194 27.4769 39.0643 25.9356 39.0643 24.0355H30.7101ZM27.9872 22.8958H41.7864L41.7867 20.3936H27.9872V22.8958ZM28.0266 19.1057H41.737C43.4948 17.2939 43.9521 15.4128 43.9521 15.4128L40.8038 16.027C40.8038 16.027 40.1343 16.191 39.1648 16.3729C40.0175 15.3653 40.5229 14.0764 40.5229 12.7074C40.5229 10.6656 40.0255 9.58601 39.205 8.16107C38.6964 7.27786 37.9529 5.44071 38.6006 3.9725C37.1324 5.13836 36.7344 8.51523 36.6492 10.8296C36.534 10.3301 36.479 9.70134 36.4233 9.06558C36.3548 8.28318 36.2854 7.49014 36.1018 6.91411C35.8409 6.09705 35.5704 5.42334 35.3386 4.84611C34.782 3.45957 34.4488 2.6297 35.0087 1.70683C34.1191 1.76046 33.2296 3.32842 33.2296 4.67823C33.2296 5.98193 32.877 8.10821 32.0345 9.27253C31.9773 6.75814 31.1296 5.15002 30.3371 5.08551C30.7824 6.22233 30.309 7.50662 29.7887 8.91846C29.3576 10.0881 28.8943 11.3453 28.8943 12.6787C28.8943 14.0192 29.4168 15.3306 30.2969 16.3623C29.3803 16.1952 28.7533 16.0501 28.7533 16.0501C27.5349 15.776 25.8167 15.3949 25.8221 15.4249C26.1452 16.3374 26.4778 17.2328 27.8903 18.9479C27.921 18.9851 27.953 19.0216 27.985 19.0581C27.9989 19.0739 28.0128 19.0898 28.0266 19.1057Z" fill="#E6522C"/>
<path d="M27.575 33.3548C27.5254 32.8541 27.4427 32.2796 27.2773 31.6394C27.112 31.0074 26.8639 30.3097 26.5001 29.5875C26.1363 28.8652 25.665 28.1183 25.0531 27.3878C24.8134 27.1005 24.5488 26.8215 24.2676 26.5506C24.6893 24.8845 23.755 23.4399 23.755 23.4399C22.1427 23.3414 21.1174 23.9406 20.737 24.2114C20.6709 24.1868 20.613 24.154 20.5469 24.1294C20.274 24.0227 19.9929 23.916 19.6952 23.8257C19.4058 23.7354 19.1082 23.6533 18.8023 23.5794C18.4963 23.5056 18.1904 23.4481 17.8762 23.3989C17.8183 23.3907 17.7687 23.3825 17.7108 23.3743C17.008 21.1418 14.9905 20.2061 14.9905 20.2061C12.7333 21.626 12.3116 23.6123 12.3116 23.6123C12.3116 23.6123 12.3033 23.6533 12.2868 23.7272C12.1628 23.76 12.0387 23.8011 11.9147 23.8339C11.7411 23.8831 11.5674 23.9488 11.4021 24.0145C11.2284 24.0801 11.0631 24.1458 10.8894 24.2196C10.5504 24.3674 10.2114 24.5315 9.88069 24.7121C9.55823 24.8927 9.24403 25.0897 8.9381 25.2948L8.85541 25.262C5.72997 24.0801 2.96007 25.5 2.96007 25.5C2.70375 28.7995 4.2086 30.8761 4.50626 31.2536C4.43184 31.4588 4.36569 31.664 4.29955 31.8692C4.06803 32.6161 3.8944 33.3794 3.78691 34.1756C3.77037 34.2905 3.75384 34.4054 3.74557 34.5203C0.851641 35.9402 0 38.8375 0 38.8375C2.40609 41.5871 5.21734 41.7595 5.21734 41.7595L5.2256 41.7513C5.58114 42.3833 5.99456 42.9824 6.45759 43.5488C6.65603 43.7868 6.85447 44.0084 7.06945 44.23C6.193 46.7251 7.19347 48.7935 7.19347 48.7935C9.87242 48.892 11.6336 47.628 12.0057 47.3407C12.2702 47.431 12.5431 47.5131 12.816 47.5787C13.6428 47.7921 14.4862 47.9152 15.3295 47.9481C15.5362 47.9563 15.7512 47.9645 15.9579 47.9563H16.2556L16.3879 47.9481V47.9563C17.653 49.7456 19.8689 50 19.8689 50C21.4481 48.3503 21.5391 46.7087 21.5391 46.3558V46.208C21.8698 45.9782 22.184 45.732 22.4817 45.4611C23.1101 44.8948 23.664 44.2464 24.1271 43.5488L24.2511 43.3518C26.0371 43.4503 27.3021 42.2519 27.3021 42.2519C27.0045 40.4052 25.9461 39.5024 25.7229 39.33C25.4996 39.1576 25.7146 39.3218 25.6981 39.3136C25.6815 39.3054 25.6815 39.2972 25.6815 39.2972C25.6733 39.289 25.6567 39.2808 25.6402 39.2725C25.6485 39.1576 25.6567 39.0509 25.665 38.936C25.6815 38.739 25.6815 38.5339 25.6815 38.3369V38.025L25.6733 37.9019L25.665 37.7377C25.665 37.6803 25.6567 37.631 25.6485 37.5818C25.6402 37.5325 25.6402 37.4751 25.6319 37.4258L25.6154 37.2699L25.5906 37.1139C25.5575 36.9087 25.5244 36.7117 25.4748 36.5066C25.2846 35.7104 24.9705 34.9553 24.5653 34.2741C24.1519 33.5928 23.6392 32.9937 23.0522 32.4848C22.4734 31.9759 21.8202 31.5655 21.1422 31.2618C20.4559 30.9582 19.7448 30.7612 19.0338 30.6709C18.6782 30.6216 18.3227 30.6052 17.9671 30.6134H17.7026L17.5703 30.6216C17.5207 30.6216 17.471 30.6298 17.4297 30.6298C17.2478 30.6463 17.0659 30.6709 16.8923 30.7037C16.1812 30.835 15.5114 31.0895 14.9244 31.4424C14.3373 31.7953 13.8247 32.2303 13.4113 32.7228C12.9979 33.2153 12.6754 33.7652 12.4522 34.3315C12.2289 34.8978 12.1049 35.4888 12.0718 36.0551C12.0635 36.1947 12.0635 36.3424 12.0635 36.4819V36.5886L12.0718 36.7035C12.0801 36.7692 12.0801 36.8431 12.0883 36.9087C12.1131 37.196 12.171 37.4751 12.2454 37.7377C12.4025 38.2712 12.6506 38.7555 12.9565 39.1658C13.2625 39.5762 13.6345 39.9127 14.0231 40.1836C14.4118 40.4462 14.8334 40.635 15.2469 40.7581C15.6603 40.8813 16.0737 40.9305 16.4623 40.9305H16.6773C16.7021 40.9305 16.7269 40.9305 16.7517 40.9223C16.793 40.9223 16.8344 40.9141 16.8757 40.9141C16.884 40.9141 16.9005 40.9141 16.9088 40.9059L16.9501 40.8977C16.9749 40.8977 16.9998 40.8895 17.0246 40.8895C17.0742 40.8813 17.1155 40.873 17.1651 40.8648C17.2147 40.8566 17.2561 40.8484 17.2974 40.832C17.3884 40.8156 17.471 40.7828 17.5537 40.7581C17.7191 40.7007 17.8845 40.635 18.025 40.5612C18.1739 40.4873 18.3062 40.397 18.4384 40.3149C18.4715 40.2903 18.5129 40.2657 18.5459 40.2328C18.6782 40.1261 18.703 39.9292 18.5955 39.7978C18.5046 39.6829 18.3392 39.6501 18.2069 39.724L18.1077 39.7732C17.992 39.8307 17.8762 39.8799 17.7522 39.921C17.6281 39.962 17.4959 39.9948 17.3636 40.0194C17.2974 40.0277 17.2313 40.0359 17.1568 40.0441C17.1238 40.0441 17.0907 40.0523 17.0494 40.0523H16.8509C16.8096 40.0523 16.7682 40.0523 16.7269 40.0441H16.6773C16.6607 40.0441 16.6359 40.0441 16.6194 40.0359C16.5781 40.0277 16.545 40.0277 16.5036 40.0194C16.1977 39.9784 15.8918 39.8881 15.6024 39.7568C15.3047 39.6255 15.0236 39.4449 14.7673 39.2151C14.511 38.9853 14.2877 38.7144 14.1141 38.4025C13.9405 38.0906 13.8164 37.7459 13.7586 37.3848C13.7337 37.2042 13.7172 37.0154 13.7255 36.8349C13.7255 36.7856 13.7337 36.7364 13.7337 36.6871V36.6215C13.7337 36.5968 13.742 36.5722 13.742 36.5476C13.7503 36.4491 13.7668 36.3506 13.7834 36.2521C13.9239 35.4642 14.3208 34.6927 14.9327 34.1099C15.0898 33.9622 15.2551 33.8308 15.4288 33.7077C15.6024 33.5846 15.7926 33.4779 15.991 33.3876C16.1895 33.2973 16.3879 33.2235 16.6029 33.166C16.8096 33.1086 17.0246 33.0757 17.2478 33.0511C17.3553 33.0429 17.4628 33.0347 17.5785 33.0347H17.8349L17.9258 33.0429C18.1656 33.0593 18.3971 33.0922 18.6286 33.1496C19.0916 33.2481 19.5464 33.4205 19.9681 33.6503C20.8115 34.1181 21.5308 34.8404 21.969 35.7104C22.1923 36.1454 22.3494 36.6133 22.4238 37.0975C22.4403 37.2206 22.4569 37.3437 22.4651 37.4669L22.4817 37.6474V38.0004C22.4817 38.0578 22.4734 38.1563 22.4734 38.2138C22.4651 38.3451 22.4486 38.4846 22.4321 38.6159C22.4155 38.7473 22.3907 38.8786 22.3659 39.0099C22.3411 39.1412 22.308 39.2725 22.275 39.3957C22.2088 39.6501 22.1261 39.9045 22.0269 40.159C21.8285 40.6514 21.5639 41.1275 21.2497 41.5625C20.613 42.4325 19.7448 43.1384 18.7526 43.5898C18.2565 43.8114 17.7356 43.9756 17.1982 44.0576C16.9336 44.1069 16.6607 44.1315 16.3879 44.1397H15.9745C15.8256 44.1397 15.6851 44.1315 15.5362 44.1151C14.9575 44.074 14.3869 43.9673 13.8247 43.8114C13.2707 43.6555 12.7333 43.4338 12.2206 43.1712C11.2036 42.6295 10.2858 41.8908 9.57476 40.9962C9.21922 40.5529 8.90502 40.0687 8.64871 39.568C8.39239 39.0674 8.18568 38.5339 8.03685 38.0004C7.88802 37.4586 7.79706 36.9087 7.75572 36.3506L7.74745 36.2439V35.5134C7.75572 35.2426 7.78053 34.9553 7.8136 34.6762C7.84667 34.3972 7.89628 34.1099 7.95416 33.8308C8.01204 33.5518 8.07819 33.2727 8.16087 32.9937C8.31797 32.4437 8.51641 31.9102 8.74793 31.4096C9.21922 30.4082 9.83108 29.5136 10.567 28.7995C10.7489 28.619 10.939 28.4548 11.1375 28.2907C11.3359 28.1347 11.5426 27.987 11.7576 27.8474C11.9643 27.7079 12.1876 27.5848 12.4108 27.4699C12.5183 27.4124 12.6341 27.355 12.7498 27.3057L13.0971 27.158C13.3286 27.0595 13.5684 26.9774 13.8164 26.9036C13.8743 26.8871 13.9405 26.8707 13.9983 26.8461C14.0562 26.8297 14.1224 26.8133 14.1802 26.7969C14.3043 26.764 14.4283 26.7312 14.5523 26.7066C14.6102 26.6902 14.6763 26.6819 14.7425 26.6655C14.8086 26.6491 14.8665 26.6409 14.9327 26.6245C14.9988 26.6163 15.0567 26.5999 15.1228 26.5917L15.2138 26.5752L15.313 26.5588C15.3792 26.5506 15.437 26.5424 15.5032 26.5342C15.5776 26.526 15.6437 26.5178 15.7182 26.5096C15.776 26.5014 15.8753 26.4932 15.9331 26.485C15.9745 26.4768 16.0241 26.4768 16.0654 26.4685L16.1564 26.4603L16.1977 26.4521H16.2473C16.3217 26.4439 16.3879 26.4439 16.4623 26.4357L16.5698 26.4275H16.6525C16.7104 26.4275 16.7765 26.4193 16.8344 26.4193C17.0742 26.4111 17.3222 26.4111 17.562 26.4193C18.0416 26.4357 18.5129 26.4932 18.9676 26.5752C19.8854 26.7476 20.7453 27.0349 21.5308 27.4206C22.3163 27.7982 23.0108 28.266 23.6227 28.7749C23.664 28.8077 23.6971 28.8406 23.7385 28.8734C23.7715 28.9062 23.8129 28.9391 23.846 28.9719C23.9204 29.0376 23.9865 29.1032 24.0609 29.1689C24.1353 29.2345 24.2015 29.3002 24.2676 29.3659C24.3338 29.4315 24.3999 29.4972 24.4661 29.5711C24.7224 29.8419 24.9622 30.1128 25.1772 30.3918C25.6071 30.9417 25.9544 31.4999 26.2272 32.0252L26.3265 32.2221C26.3595 32.2878 26.3926 32.3535 26.4174 32.4191C26.4505 32.4848 26.4753 32.5422 26.5084 32.6079C26.5332 32.6736 26.5662 32.731 26.591 32.7967C26.6903 33.0429 26.7895 33.2809 26.8639 33.5025C26.9879 33.8637 27.0789 34.1838 27.1533 34.4628C27.1781 34.5777 27.2856 34.6516 27.4013 34.6352C27.5254 34.627 27.6163 34.5285 27.6163 34.4054C27.6246 34.1099 27.6163 33.757 27.575 33.3548Z" fill="url(#paint0_linear_4526_316)"/>
<defs>
<linearGradient id="paint0_linear_4526_316" x1="25.0575" y1="61.1033" x2="25.0575" y2="15.4229" gradientUnits="userSpaceOnUse">
<stop stop-color="#FFF200"/>
<stop offset="1" stop-color="#F15A29"/>
</linearGradient>
</defs>
</svg>
