<svg xmlns="http://www.w3.org/2000/svg" fill="none" viewBox="0 0 50 50">
  <path fill="#0073aa" d="M25 1.5a23.43 23.43 0 0121.66 14.35A23.38 23.38 0 0148.5 25a23.4 23.4 0 01-10.36 19.5A23.38 23.38 0 0125 48.5 23.44 23.44 0 013.34 34.15 23.6 23.6 0 0111.86 5.5 23.5 23.5 0 0125 1.5zM25 0a25 25 0 100 49.99A25 25 0 0025 0z"/>
  <path fill="#0073aa" d="M4.17 25c0 8.24 4.8 15.37 11.74 18.75L5.98 16.52A20.64 20.64 0 004.17 25zm34.9-1.05c0-2.58-.93-4.36-1.72-5.75-1.06-1.72-2.05-3.17-2.05-4.88 0-1.91 1.46-3.7 3.5-3.7l.27.02a20.82 20.82 0 00-31.48 3.92l1.34.02c2.18 0 5.55-.26 5.55-.26 1.13-.07 1.25 1.58.14 1.72 0 0-1.14.13-2.39.2l7.6 22.56 4.55-13.67-3.25-8.9c-1.12-.07-2.18-.2-2.18-.2-1.12-.06-.99-1.78.14-1.71 0 0 3.44.26 5.49.26 2.17 0 5.55-.26 5.55-.26 1.12-.07 1.25 1.58.13 1.72 0 0-1.13.13-2.38.2l7.52 22.39 2.15-6.81c.95-2.98 1.52-5.09 1.52-6.87zm-13.7 2.87L19.1 44.98a20.88 20.88 0 0012.8-.33l-.15-.28-6.4-17.55zM43.27 15c.09.66.14 1.37.14 2.14 0 2.12-.4 4.5-1.58 7.46l-6.37 18.4a20.81 20.81 0 007.81-28z"/>
</svg>
