<svg xmlns="http://www.w3.org/2000/svg" viewBox="0 0 50 50">
  <path d="M8.2 50.53c-.82-1.3-1.29-2.74-1.62-4.23A25.47 25.47 0 016 40.2c.04-2.13.49-4.15 1.81-5.88.59-.75 1.26-1.43 2.27-1.56.74-.1 1.44.18 2.1.49.91.42 1.73 1.02 2.57 1.58.53.34 1.06.66 1.61.97.29.16.5.1.68-.16.35-.52.49-1.1.55-1.7 0-.13-.04-.22-.16-.27a4.3 4.3 0 01-2-1.77c-1.35-1.95-2-4.14-1.9-6.5.1-2.4 1.32-4.1 3.4-5.24a14.03 14.03 0 014.37-1.35l1-.17c.25-.04.37-.12.28-.43-.62-2.15-.3-4.26.33-6.34.44-1.4 1.51-2.2 2.8-2.71.9-.37 1.83-.63 2.66-1.16a12.1 12.1 0 001.57-1.16 4.6 4.6 0 001.4-2.93c.12-.94.19-1.87.14-2.82 0-.23.04-.44.28-.53.25-.09.43.05.57.25.35.54.58 1.15.79 1.75.34 1 .76 1.97.91 3.02a5.24 5.24 0 01-1.3 4.33c-.5.57-.58.97-.2 1.67.63 1.15.87 2.42.53 3.75-.07.28 0 .4.32.38.65-.04 1.3-.04 1.95.11 2.19.5 3.39 1.95 3.89 4.06.39 1.6.32 3.2.2 4.83-.14 1.8-.4 3.57-.87 5.3-.6 2.16-1.48 4.2-2.95 5.92a8.66 8.66 0 01-2.84 2.27c-.4.2-.74.2-1.07-.12-.12-.1-.25-.17-.37-.26-.16-.11-.24-.1-.34.1-1.9 3.23-4.79 5.04-8.38 5.8-2.76.58-5.43.27-7.87-1.26-.38-.23-.73-.5-1.05-.8-.17-.17-.31-.16-.52-.03A9.02 9.02 0 009.13 47a44.06 44.06 0 00-.83 3.21c0 .11-.02.22-.1.3zM31.42 9.37c.9-.92 1.48-2.94 1.11-4.1l-.32 1.5c-.18.88-.55 1.71-.8 2.57l-.04.07a.25.25 0 01.05-.04zm-4.3 20.85a1.42 1.42 0 00-.45-.46 8.3 8.3 0 00-6.97-1.56c-.81.16-1.62.35-2.41.58-.24.07-.46.07-.59-.17-.13-.25.02-.44.2-.58.1-.1.22-.18.32-.27 3.08-2.39 6.51-3.35 10.36-2.45 2.32.53 4.36 1.65 6.26 3.05.64.47 1.25.96 1.95 1.33.33.19.45.13.47-.26.01-.24-.01-.48-.06-.7-.4-2.21-1.14-4.33-1.86-6.44-.33-.96-.8-1.88-.93-2.9-.08-.61 0-1.2.1-1.81-.33.08-.59.23-.85.38-.84.47-1.53 1.1-2.24 1.71-.92.79-1.86 1.53-2.94 2.1-.86.46-1.63.42-2.38-.2-.25-.2-.51-.41-.74-.63-1.07-1.02-.6-.95-2.07-.7-1.7.28-3.4.6-4.93 1.42a4 4 0 00-2.31 3.1c-.1.67-.12 1.33-.04 2 .2 1.6.69 3.08 1.65 4.4.39.53.83 1.03 1.56 1.04.38 0 .76-.04 1.12-.08 1.8-.25 3.55-.73 5.28-1.21.84-.22 1.66-.46 2.5-.69zM20.1 42.38a11.12 11.12 0 008.98-4.37 8.88 8.88 0 001.97-5c0-.22-.04-.3-.27-.33a4.12 4.12 0 01-2.68-1.3c-.13-.14-.25-.13-.4-.07l-1.43.49c-2.22.76-4.46 1.46-6.64 2.34-.32.13-.5.3-.6.64a7.05 7.05 0 01-1.75 2.95c-.9.92-1.97 1.6-3.14 2.12-.25.12-.34.21-.06.4.16.1.3.26.45.38a8.69 8.69 0 005.57 1.75zm6.3-21.99l.26-.04c1.53-.53 2.88-1.3 3.63-2.84.14-.26.12-.35-.18-.46-1.07-.36-1.77-1.07-1.95-2.21-.04-.2-.1-.4-.12-.6-.02-.23-.14-.24-.3-.17l-.78.28c-1.06.38-2.1.76-3.04 1.39a.8.8 0 00-.38.83 4.8 4.8 0 002.27 3.6c.17.12.36.23.59.22zM11.86 40.72c-1.2-.85-1.38-1.22-1.26-2.68.06-.72.07-1.43.05-2.15a4.22 4.22 0 00-.16-1.08c-.12-.37-.24-.42-.56-.19-.41.3-.75.67-1.03 1.1a9.63 9.63 0 00-1.5 5.14c-.04 1.14.07 2.29.24 3.42.08.52.13 1.06.32 1.64a9.75 9.75 0 013.9-5.2zm9.37-13.85h.32c1.54-.06 3 .26 4.35 1a9.93 9.93 0 012.93 2.42c.5.62 1.1 1.05 1.92 1.13.9.1 1.78.01 2.65-.16.45-.1.88-.24 1.36-.38-.88-.67-1.69-1.29-2.52-1.9-2.6-1.94-5.46-2.97-8.74-2.63-.77.08-1.54.22-2.27.52zm16.17 1.74l.13-.46c.39-1.9.5-3.83.48-5.77a7.66 7.66 0 00-.64-3.27 3.6 3.6 0 00-1.4-1.69c-.55-.32-.89-.18-1.1.41a3.4 3.4 0 00.05 2.42c.93 2.72 2.02 5.39 2.48 8.36zM30.68 7.89c-.08.03-.11.03-.14.06a10 10 0 01-2.73 1.71c-1.01.45-2.02.9-2.92 1.53-.16.12-.36.23-.45.39-.5.9-.65 1.89-.8 2.97a19.14 19.14 0 013.22-1.46c.83-.31 1.47-.8 1.98-1.5.84-1.1 1.42-2.34 1.84-3.7zm5.85 23.56c-1.24.68-2.5.96-3.77 1.18-.12.02-.26.04-.27.24a12.38 12.38 0 01-.64 3.4c-.13.35.3.43.47.65.13.17.25-.03.34-.1.68-.5 1.27-1.1 1.8-1.75.85-1.08 1.51-2.24 2.07-3.62zM15.74 37.2c-1.16-.57-2.18-1.26-3.26-1.92l-.14 1.22c-.07.71-.25 1.42-.18 2.14.04.44.24.6.61.44a10.5 10.5 0 002.97-1.88zM32.01 14c0-.73-.22-1.42-.52-1.88-.1-.16-.18-.18-.32-.06l-1.23 1c-.86.69-.54 1.86-.02 2.38.52.54 1.2.48 1.64-.12.33-.44.44-.94.45-1.32z"/>
  <path d="M31.42 9.37l-.05.05.03-.07.02.02z"/>
</svg>
