<svg width="50" height="50" viewBox="0 0 50 50" fill="none" xmlns="http://www.w3.org/2000/svg">
<path d="M47.392 37.6429C47.9085 36.2429 47.9335 34.968 47.467 33.8181C47.0335 32.7517 46.2006 31.8517 44.9671 31.1182C43.8172 30.4518 42.4258 29.9683 40.7924 29.6683C39.309 29.4019 37.6926 29.2849 35.9427 29.3184C34.2593 29.3684 32.6264 29.5518 31.0429 29.8683C29.5265 30.1848 28.1931 30.5848 27.0432 31.0683C25.9097 31.5517 25.0268 32.0767 24.3933 32.6432C23.7599 33.2431 23.4269 33.8596 23.3934 34.4931C23.3434 35.243 23.7269 36.0515 24.5433 36.9179C25.2933 37.7179 26.3432 38.5013 27.6931 39.2678C29.0431 40.0342 30.5345 40.6927 32.1679 41.2427C33.9178 41.8261 35.6427 42.2011 37.3426 42.3676C38.4425 42.4676 39.4675 42.4841 40.4174 42.4176C41.4508 42.3176 42.4088 42.1011 43.2922 41.7676C44.2422 41.4011 45.0506 40.8927 45.7171 40.2427C46.467 39.5263 47.0255 38.6593 47.392 37.6429ZM36.9426 33.7181C37.5091 34.0181 37.926 34.3846 38.1925 34.818C38.459 35.3015 38.5175 35.8515 38.3675 36.4679C38.251 36.9014 38.059 37.2764 37.7926 37.5929C37.5426 37.8764 37.2091 38.1013 36.7926 38.2678C36.4426 38.4178 36.0177 38.5263 35.5177 38.5928C35.0342 38.6428 34.5512 38.6513 34.0678 38.6178C33.2178 38.5678 32.2844 38.4013 31.2679 38.1178C30.3845 37.8514 29.5345 37.5179 28.7181 37.1179C27.9681 36.7514 27.3517 36.3679 26.8682 35.968C26.4017 35.5515 26.1767 35.1845 26.1932 34.868C26.2267 34.6015 26.4182 34.3431 26.7682 34.0931C27.1182 33.8596 27.6017 33.6516 28.2181 33.4681C28.8346 33.2681 29.518 33.1181 30.268 33.0181C31.1179 32.9181 31.9264 32.8681 32.6929 32.8681C33.5428 32.8846 34.3093 32.9516 34.9927 33.0681C35.7262 33.2181 36.3761 33.4346 36.9426 33.7181Z" fill="url(#paint0_linear_5304_496)"/>
<path d="M34.9427 7.49463C34.8762 5.69474 34.4263 4.19483 33.5928 2.9949C32.7094 1.67847 31.4094 0.778526 29.693 0.295055C29.3095 0.178562 28.9016 0.0950664 28.4681 0.0450694C28.0846 -0.00492771 27.6931 -0.0134272 27.2932 0.0200708C26.9267 0.0200708 26.5597 0.0615684 26.1932 0.145064C25.8768 0.21156 25.5268 0.320053 25.1433 0.470044C23.9099 0.953516 22.7934 1.80347 21.7935 3.0199C20.86 4.11983 20.0601 5.48625 19.3936 7.11965C18.8102 8.50307 18.3437 10.0195 17.9937 11.6694C17.6602 13.2193 17.4352 14.7942 17.3188 16.3941C17.2188 17.844 17.2103 19.2354 17.2938 20.5689C17.3937 21.8853 17.5772 23.0772 17.8437 24.1437C18.3772 26.327 19.1936 27.6685 20.2936 28.1684C20.3936 28.2184 20.4936 28.2599 20.5936 28.2934L21.2435 28.3934C21.327 28.3934 21.452 28.3849 21.6185 28.3684C22.3185 28.3019 23.1099 28.0099 23.9934 27.4935C24.8433 26.977 25.7348 26.2685 26.6682 25.3686C27.6681 24.4021 28.6346 23.2772 29.568 21.9938C30.5515 20.6604 31.4264 19.2524 32.1929 17.769C33.0928 16.0191 33.7843 14.3027 34.2678 12.6193C34.7677 10.7694 34.9927 9.06104 34.9427 7.49463ZM25.4183 11.5444C25.5848 11.5779 25.7268 11.6194 25.8433 11.6694C27.1932 12.1359 27.8846 13.2108 27.9181 14.8942C27.9346 16.2776 27.5097 17.869 26.6432 19.6689C25.9267 21.1688 25.0683 22.4853 24.0684 23.6187C23.1349 24.6851 22.352 25.2521 21.7185 25.3186L21.5935 25.3436L21.3685 25.3186L21.2435 25.2686C20.7771 25.0521 20.4521 24.3436 20.2686 23.1437C20.0851 21.9273 20.0936 20.5354 20.2936 18.969C20.5101 17.2191 20.9185 15.6857 21.5185 14.3692C22.235 12.8028 23.1184 11.8779 24.1684 11.5944C24.3518 11.5444 24.4848 11.5194 24.5683 11.5194C24.7018 11.5029 24.8348 11.4944 24.9683 11.4944C25.1018 11.4944 25.2518 11.5109 25.4183 11.5444Z" fill="url(#paint1_linear_5304_496)"/>
<path d="M2.99459 16.7691C2.7946 17.0356 2.62811 17.3276 2.49462 17.644C2.34463 18.0275 2.23614 18.419 2.16964 18.819C1.81966 20.4524 2.01115 22.0353 2.74461 23.5687C3.34457 24.8351 4.31102 26.027 5.64444 27.1435C6.82787 28.1269 8.16079 28.9269 9.6442 29.5433C11.1441 30.1598 12.4525 30.4433 13.569 30.3933C13.7855 30.3933 14.0189 30.3683 14.2689 30.3183C14.5189 30.2683 14.7274 30.2018 14.8939 30.1183C15.0604 30.0348 15.2189 29.9268 15.3689 29.7933C15.5189 29.6598 15.6354 29.5098 15.7188 29.3434C16.1188 28.5769 16.0103 27.3935 15.3939 25.7936C14.7604 24.2437 13.8025 22.6522 12.519 21.0188C11.1856 19.3189 9.79419 17.9775 8.34428 16.9941C6.77787 15.9441 5.45295 15.5527 4.36951 15.8191C4.10303 15.8856 3.85304 16.0026 3.61956 16.1691C3.38607 16.3191 3.17808 16.5191 2.99459 16.7691ZM6.69438 21.7438C6.77787 21.5938 6.86087 21.4773 6.94436 21.3938C7.02786 21.3103 7.12785 21.2353 7.24434 21.1688C7.37784 21.1188 7.49433 21.0853 7.59432 21.0688C8.12779 20.9688 8.80275 21.2023 9.6192 21.7688C10.3527 22.2523 11.0856 22.9352 11.8191 23.8187C12.4855 24.6186 13.019 25.4021 13.419 26.1685C13.8025 26.952 13.919 27.502 13.769 27.8184C13.7355 27.8849 13.694 27.9349 13.644 27.9684C13.594 28.0349 13.5355 28.0769 13.469 28.0934C13.4355 28.1269 13.369 28.1519 13.269 28.1684L12.994 28.2184C12.4605 28.2519 11.7691 28.1019 10.9191 27.7684C10.0857 27.435 9.30272 26.9935 8.56927 26.4435C7.78581 25.8601 7.20285 25.2271 6.81937 24.5436C6.38589 23.7602 6.2859 22.9772 6.51939 22.1938C6.56938 22.0273 6.62788 21.8773 6.69438 21.7438Z" fill="url(#paint2_linear_5304_496)"/>
<path d="M19.1186 37.0679H19.0187C18.5022 37.0514 18.0272 37.2264 17.5937 37.5929C17.1938 37.9428 16.8523 38.4428 16.5688 39.0928C16.3188 39.6762 16.1438 40.3342 16.0438 41.0677C15.9438 41.8011 15.9273 42.5426 15.9938 43.2925C16.1273 44.8759 16.5938 46.2174 17.3937 47.3173C18.3272 48.5837 19.6271 49.4172 21.2935 49.8172H21.3435L21.4935 49.8671H21.5685C23.3849 50.2171 24.6018 49.8756 25.2183 48.8422C25.5018 48.3587 25.6433 47.7423 25.6433 46.9923C25.6268 46.2759 25.4933 45.4924 25.2433 44.6425C24.9933 43.776 24.6433 42.9091 24.1933 42.0426C23.7434 41.1592 23.2349 40.3592 22.6684 39.6427C22.0685 38.8928 21.4685 38.2928 20.8685 37.8429C20.2351 37.3764 19.6521 37.1179 19.1186 37.0679ZM18.4187 40.1677C18.6852 39.4343 19.0272 39.0843 19.4436 39.1178H19.4686C19.8851 39.1678 20.3771 39.6012 20.9435 40.4177C21.51 41.2342 21.935 42.0926 22.2185 42.9925C22.5349 43.976 22.6019 44.7589 22.4185 45.3424C22.202 45.9589 21.6685 46.2089 20.8185 46.0924H20.7936L20.7686 46.0674H20.6936C19.8601 45.9009 19.2186 45.4674 18.7687 44.7674C18.3852 44.134 18.1687 43.3675 18.1187 42.4676C18.0687 41.5841 18.1687 40.8177 18.4187 40.1677Z" fill="url(#paint3_linear_5304_496)"/>
<path d="M12.994 34.793C12.844 34.6765 12.6605 34.5765 12.444 34.4931C12.2276 34.4096 12.0026 34.3516 11.7691 34.3181C11.5526 34.2681 11.3191 34.2346 11.0691 34.2181C10.3527 34.2016 9.6527 34.3096 8.96924 34.543C8.30278 34.7595 7.76081 35.0845 7.34434 35.518C6.92786 35.9845 6.72787 36.5014 6.74437 37.0679C6.76087 37.6844 7.05285 38.3513 7.61932 39.0678C7.76931 39.2513 7.9528 39.4513 8.16929 39.6677C8.33578 39.8342 8.52777 39.9842 8.74426 40.1177C8.91075 40.2177 9.09424 40.3092 9.29422 40.3927C9.52771 40.4762 9.7107 40.5177 9.84419 40.5177C10.4442 40.6012 11.0276 40.4762 11.5941 40.1427C12.1441 39.8262 12.619 39.3763 13.019 38.7928C13.4355 38.1928 13.694 37.5764 13.794 36.9429C13.894 36.2429 13.769 35.668 13.419 35.218C13.2855 35.0515 13.144 34.9095 12.994 34.793ZM12.494 35.818C12.644 36.018 12.6775 36.2844 12.594 36.6179C12.5275 36.9344 12.3775 37.2594 12.1441 37.5929C11.9106 37.9094 11.6441 38.1593 11.3441 38.3428C11.0276 38.5428 10.7191 38.6263 10.4192 38.5928L10.1442 38.5428C10.0442 38.5093 9.95269 38.4593 9.86919 38.3928C9.80269 38.3593 9.7107 38.2928 9.59421 38.1928C9.52771 38.1263 9.44421 38.0343 9.34422 37.9179C9.04424 37.5344 8.92775 37.1844 8.99424 36.8679C9.02774 36.5844 9.20273 36.3344 9.51921 36.118C9.80269 35.918 10.1442 35.768 10.5442 35.668C10.9441 35.568 11.3276 35.5265 11.6941 35.543L11.9691 35.568L12.1941 35.618C12.2606 35.6515 12.319 35.6845 12.369 35.718L12.494 35.818Z" fill="url(#paint4_linear_5304_496)"/>
<defs>
<linearGradient id="paint0_linear_5304_496" x1="1.99995" y1="50.0003" x2="47.7993" y2="50.0003" gradientUnits="userSpaceOnUse">
<stop stop-color="#1F2022"/>
<stop offset="1" stop-color="#635E69"/>
</linearGradient>
<linearGradient id="paint1_linear_5304_496" x1="47.799" y1="50" x2="47.799" y2="0.000125169" gradientUnits="userSpaceOnUse">
<stop stop-color="#2087E2"/>
<stop offset="1" stop-color="#B63FFF"/>
</linearGradient>
<linearGradient id="paint2_linear_5304_496" x1="2.00012" y1="49.9999" x2="47.7993" y2="49.9999" gradientUnits="userSpaceOnUse">
<stop stop-color="#100F0F"/>
<stop offset="1" stop-color="#49261F"/>
</linearGradient>
<linearGradient id="paint3_linear_5304_496" x1="47.799" y1="50.0006" x2="47.799" y2="0.000643729" gradientUnits="userSpaceOnUse">
<stop stop-color="#222020"/>
<stop offset="1" stop-color="#49261F"/>
</linearGradient>
<linearGradient id="paint4_linear_5304_496" x1="13.8273" y1="40.5427" x2="13.8273" y2="34.2164" gradientUnits="userSpaceOnUse">
<stop stop-color="#1E1C1C"/>
<stop offset="1" stop-color="#49261F"/>
</linearGradient>
</defs>
</svg>
